<svg xmlns="http://www.w3.org/2000/svg" width="96" height="96" viewBox="0 0 96 96">
    <g fill="none" fill-rule="evenodd">
        <rect width="96" height="96" fill="#FFF" rx="24"/>
        <g fill="#E84864">
            <path d="M69.427 26.713a6.685 6.685 0 1 1-13.37 0 6.685 6.685 0 0 1 13.37 0M48.904 65.412a7.033 7.033 0 1 1 0-14.065 7.033 7.033 0 1 1 0 14.065m20.49-7.69c-.012-.38-.025-.76-.058-1.135-.027-.307-.068-.607-.108-.909a20.437 20.437 0 0 0-.325-1.835 19.15 19.15 0 0 0-.214-.835c-.084-.309-.164-.62-.262-.924-.06-.189-.137-.37-.203-.555a20.321 20.321 0 0 0-.81-1.944c-.082-.172-.16-.346-.248-.516a19.719 19.719 0 0 0-.82-1.438 20.85 20.85 0 0 0-.697-1.057l-.069-.091a20.433 20.433 0 0 0-10.786-7.678c-.29-.095-.572-.205-.867-.287l-1.477-.413c-.736-.206-3.635-.977-4.406-1.193l-.079-.022c-3.626-1.044-6.003-4.519-6.043-8.289v-1.906a6.666 6.666 0 1 0-13.332 0v31.598h.005c0 .03-.005.057-.005.086 0 9.357 6.302 17.226 14.888 19.64v.002l-.006.016c.183.051.366.078.548.123l.058.013a20.175 20.175 0 0 0 1.203.27c.293.054.59.094.888.136l.035.003c.363.05.726.098 1.095.129h.006c.34.03.683.042 1.028.052.223.008.442.035.67.035h.005c11.277 0 20.419-9.142 20.419-20.419 0-.221-.027-.438-.033-.658"/>
        </g>
    </g>
</svg>
