<svg xmlns="http://www.w3.org/2000/svg" xmlns:xlink="http://www.w3.org/1999/xlink" width="17" height="24" viewBox="0 0 17 24">
    <defs>
        <path id="a" d="M2.682.282c1.48 0 2.681 1.2 2.681 2.681v.767c.016 1.517.972 2.915 2.431 3.334l.032.01c.31.086 1.476.397 1.772.48l.594.165c.12.034.233.078.35.116a8.22 8.22 0 0 1 4.339 3.089l.027.036a8.087 8.087 0 0 1 .382.592c.08.136.156.272.228.412l.1.208c.122.254.23.514.326.782.027.074.057.147.082.223.04.122.071.247.105.372.03.111.06.222.086.335a8.49 8.49 0 0 1 .13.739c.017.121.034.242.044.365.014.151.018.304.024.457.002.088.013.175.013.265a8.214 8.214 0 0 1-8.214 8.213h-.002c-.092 0-.18-.01-.27-.013a8.016 8.016 0 0 1-.413-.021 8.188 8.188 0 0 1-.444-.052l-.014-.002c-.12-.016-.239-.033-.357-.054a8.502 8.502 0 0 1-.484-.109l-.023-.005c-.073-.018-.147-.03-.22-.05l.002-.006C2.535 22.639 0 19.473 0 15.71l.002-.035H0V2.963C0 1.483 1.2.282 2.682.282zm5.49 12.598a2.83 2.83 0 1 0 0 5.659 2.83 2.83 0 0 0 0-5.659zM13.738.281a2.69 2.69 0 1 1 0 5.379 2.69 2.69 0 0 1 0-5.379z"/>
    </defs>
    <g fill="none" fill-rule="evenodd">
        <mask id="b" fill="#fff">
            <use xlink:href="#a"/>
        </mask>
        <use fill="#E84864" xlink:href="#a"/>
        <g fill="#2A2A2A" mask="url(#b)">
            <path d="M-4-4h28v34H-4z"/>
        </g>
    </g>
</svg>
